<svg
          xmlns="http://www.w3.org/2000/svg"
          viewBox="0 0 112 97"
        >
          <g
            transform="translate(0,97) scale(0.1,-0.1)"
            fill="#ffffff"
            stroke="none"
          >
            <path
              d="M510 852 c-30 -53 -91 -160 -136 -237 -44 -77 -96 -167 -114 -200
l-32 -60 71 -124 c39 -68 71 -126 71 -128 0 -1 -43 -3 -95 -3 -52 0 -95 2 -95
5 0 2 9 19 20 37 25 42 25 52 -3 93 l-23 34 -67 -119 c-37 -65 -67 -121 -67
-124 0 -3 106 -6 235 -6 129 0 235 2 235 5 0 6 -84 158 -143 256 l-45 76 44
74 c25 41 79 136 122 212 42 75 79 137 82 137 3 0 15 -18 28 -41 l24 -41 -58
-96 c-81 -135 -134 -233 -134 -246 0 -6 9 -26 21 -45 l20 -34 63 104 c91 152
176 305 176 318 0 13 -133 250 -140 251 -3 0 -30 -44 -60 -98z"
            />
            <path
              d="M740 567 l-24 -44 61 -99 c60 -98 183 -313 183 -320 0 -2 -22 -4 -48
-4 -42 0 -50 3 -63 27 -94 166 -175 303 -181 303 -3 0 -38 -55 -77 -122 l-70
-122 26 -46 c71 -122 69 -120 119 -120 l45 0 -46 85 -46 85 24 40 c28 48 21
55 107 -97 l64 -113 147 0 147 0 -68 117 c-37 65 -111 195 -165 288 -53 94
-100 174 -105 178 -4 4 -17 -12 -30 -36z"
            />
          </g>
        </svg>